<?xml version="1.0" encoding="iso-8859-1"?>
<!-- Generator: Adobe Illustrator 19.0.0, SVG Export Plug-In . SVG Version: 6.00 Build 0)  -->
<svg version="1.1" id="Layer_1" xmlns="http://www.w3.org/2000/svg" xmlns:xlink="http://www.w3.org/1999/xlink" x="0px" y="0px"
	 viewBox="0 0 512 512" style="enable-background:new 0 0 512 512;" xml:space="preserve">
<rect x="361.739" y="66.783" style="fill:#665247;" width="66.783" height="111.304"/>
<path style="fill:#EDF0F2;" d="M495.304,144.696H16.696C7.475,144.696,0,152.171,0,161.391v283.826h512V161.391
	C512,152.171,504.525,144.696,495.304,144.696z"/>
<path style="fill:#DAE1E6;" d="M495.304,144.696H256v300.522h256V161.391C512,152.171,504.525,144.696,495.304,144.696z"/>
<path style="fill:#FFDFB3;" d="M183.652,244.87H83.478c-9.217,0-16.696-7.473-16.696-16.696V94.609
	c0-9.223,7.479-16.696,16.696-16.696h100.174c9.217,0,16.696,7.473,16.696,16.696v133.565
	C200.348,237.397,192.869,244.87,183.652,244.87z"/>
<g>
	<circle style="fill:#99522E;" cx="328.348" cy="228.174" r="16.696"/>
	<circle style="fill:#99522E;" cx="395.13" cy="228.174" r="16.696"/>
	<circle style="fill:#99522E;" cx="461.913" cy="228.174" r="16.696"/>
	<circle style="fill:#99522E;" cx="328.348" cy="294.957" r="16.696"/>
	<circle style="fill:#99522E;" cx="395.13" cy="294.957" r="16.696"/>
	<circle style="fill:#99522E;" cx="461.913" cy="294.957" r="16.696"/>
	<circle style="fill:#99522E;" cx="328.348" cy="361.739" r="16.696"/>
	<circle style="fill:#99522E;" cx="395.13" cy="361.739" r="16.696"/>
	<circle style="fill:#99522E;" cx="461.913" cy="361.739" r="16.696"/>
</g>
<path style="fill:#736056;" d="M461.913,512H50.087C22.424,512,0,489.576,0,461.913v-50.087h512v50.087
	C512,489.576,489.576,512,461.913,512z"/>
<path style="fill:#665247;" d="M256,512h205.913C489.577,512,512,489.576,512,461.913v-50.087H256V512z"/>
<path style="fill:#D7EBFF;" d="M294.957,478.609h-77.913c-9.22,0-16.696-7.475-16.696-16.696v-16.696h111.304v16.696
	C311.652,471.133,304.177,478.609,294.957,478.609z"/>
<path style="fill:#C4E2FF;" d="M256,478.609h38.957c9.22,0,16.696-7.475,16.696-16.696v-16.696H256V478.609z"/>
<path style="fill:#736056;" d="M495.304,100.174H294.957c-9.217,0-16.696-7.473-16.696-16.696V16.696
	C278.261,7.473,285.739,0,294.957,0h200.348C504.521,0,512,7.473,512,16.696v66.783C512,92.701,504.521,100.174,495.304,100.174z"/>
<rect x="311.652" y="33.391" style="fill:#88CC2A;" width="166.957" height="33.391"/>
<path style="fill:#736056;" d="M217.043,244.87H50.087c-9.217,0-16.696-7.473-16.696-16.696s7.479-16.696,16.696-16.696h166.957
	c9.217,0,16.696,7.473,16.696,16.696S226.261,244.87,217.043,244.87z"/>
<g>
</g>
<g>
</g>
<g>
</g>
<g>
</g>
<g>
</g>
<g>
</g>
<g>
</g>
<g>
</g>
<g>
</g>
<g>
</g>
<g>
</g>
<g>
</g>
<g>
</g>
<g>
</g>
<g>
</g>
</svg>
