<?xml version="1.0" encoding="utf-8"?>
<!-- Generator: Adobe Illustrator 22.0.1, SVG Export Plug-In . SVG Version: 6.00 Build 0)  -->
<svg version="1.1" id="Calque_1" xmlns="http://www.w3.org/2000/svg" xmlns:xlink="http://www.w3.org/1999/xlink" x="0px" y="0px"
	 viewBox="0 0 611.9 269.7" style="enable-background:new 0 0 611.9 269.7;" xml:space="preserve">
<style type="text/css">
	.st0{fill:#332723;}
	.st1{fill:#EEAA80;}
	.st2{fill:#E7884A;}
	.st3{fill:#E6E6E6;}
</style>
<g>
	<path class="st0" d="M415,119.9c1.2-4.3,5.2-5.9,8.5-7.6c9.8-5,18.7-11.5,28.6-16.4c10.7-5.3,20.1-12.9,31.2-17.5
		c2.9-1.2,5.7-3.7,8.5-5.4c14.4-8.7,29.2-16.7,43.8-25.1c10.1-5.8,20.1-11.9,30.2-17.8c10.3-6,20.5-12.4,31.2-17.8
		c5.1-2.6,9.4-6.4,14.9-8.3c0,45.7,0,91.3,0,137c-9.7,3-18.5,7.9-27.7,11.8c-12.3,5.2-24.5,10.8-36.9,15.8
		c-15.1,6.1-29.8,13-45,18.7c-8.6,3.3-17.1,7.3-25.6,11c-6.4,2.7-13,5-19.2,7.9c-4.6,2.2-7.4,1.1-9.4-3.3c-0.7-1.6-1.5-3.3-2.3-4.9
		c-0.5-2.7,0.6-4.4,3-5.4c1.7-0.7,2.8-1.5,2.2-3.7c-3.4-12.3-6.7-24.6-13-36c-5.6-10.2-11.3-20.4-18.6-29.6
		C418.2,122,417.6,119.7,415,119.9z"/>
	<path class="st0" d="M0,0c2.6,0.1,4.6,1.8,6.6,3.1c10.3,6.6,21.3,12.2,31.9,18.4c13.4,7.7,27.2,14.7,40.8,22.1
		c11.1,6.1,22.1,12.2,33.2,18.3c18.3,10.1,36.7,20,54.8,30.4c3.1,1.8,7.3,3.3,8.1,7.8c-0.4,2.4-0.8,4.9-1.1,7.3
		c-0.5,3.5-2.2,6.4-3.7,9.6c-1.5,3.1-1.1,7.6-2.3,11.3c-4.9,15-11.3,29.5-18.2,43.7c-1.4,2.9-4.7,4.6-4.7,8.2c-1,2.5-3.9,3.3-5,5.9
		c-0.7,1.6-2.7,0.9-4.4,0.3c-10.6-3.8-21.2-7.6-31.8-11.4c-12-4.3-24.1-8.3-36.1-12.7c-11.1-4.1-22.1-8.7-33.3-12.6
		c-11.7-4-23.1-8.8-34.8-12.6C0,91.3,0,45.7,0,0z"/>
	<path class="st1" d="M203,113c10.6,2,21.1,4.6,32,3.9c9.1-0.6,17.6-4.4,26.4-6.7c6.4-1.7,12.9-3.2,19.4-4.1
		c2.1-0.3,4.3-0.7,6.2,0.9c-12.2,3-23.2,9.5-35.5,12.4c-5.2,1.2-7.4,6.1-4.7,10.3c2.5,4,6.1,6.9,10.9,7.1c8.1,0.5,16.4,1.1,24.1-2
		c10.5-4.3,20.6-0.8,29.9,2.9c8,3.2,14.9,9.1,21.9,14.4c8.8,6.7,16.8,14.4,24.2,22.8c12,13.5,26,25.6,31.2,44
		c1.4,10.6-4.3,17.2-12.8,22.1c-4.5,2.6-8.7,2.9-12.6-1.8c-1.7,6.3-3.5,12-7.7,16.8c-3.1,3.6-6.7,4.5-11,4.1
		c-3.3-0.3-5.2-1.7-4.3-5.6c0.5-2.1,0.3-4.3,0.4-6.4c-0.5-1.4-0.9-2.9-1.6-4.1c-5.1-9.4-12.9-16.3-20.8-23.1c-1.8-1.6-3.3-4-6.2-4.6
		c0,2.5,1.4,3.6,2.7,4.8c8.2,7.6,16.9,15,21.8,25.4c0.5,1.1,1.4,1.4,2.3,1.6c-0.3,4.8-0.2,9.5-4.4,13.1c-5.3,4.5-9.6,4.2-13.7-1.3
		c-0.9-1.2-1.6-2.5-3.1-3.1c-0.1-0.7,0.2-1.6-0.2-1.9c-5.9-6.4-11.8-12.8-18.7-18.2c-0.7-0.5-1.6-0.9-2.2-0.3c-1.1,1,0,1.8,0.7,2.4
		c5.2,5.3,10.8,10.2,14.8,16.6c0.9,1.5,2.4,1.5,3.9,1.7c-0.6,0.8-1.1,1.5-1.2,2.6c-0.5,7.2-5.7,10.9-12.8,9.8
		c-5.2-0.8-9.4-4.1-14.3-5.8c-0.1-1.2-0.9-1.6-1.9-1.9c-4.5-1.7-7.4-4.1-7.3-9.8c0.1-3.8-1.7-7.7-3-11.5c-1.3-3.7-3.3-7.6-7.7-7.6
		c-7.8,0.1-7.6-4.6-7-10c0-0.3,0-0.7,0-1c-0.7-5.1-5.2-9.9-10.4-11c-5.1-1.1-7.8,1.6-9.4,5.9c-0.1,0.1-0.6,0.1-1.2,0.2
		c0-1.7,0.2-3.4,0-5c-0.5-4.3-2.8-7.6-7.1-8.7c-3.9-1-7.5-1.3-10.7,2.6c-3.2,3.9-4.1,8.6-6,12.9c0.4-2-1.3-2.9-2.1-4.4
		c1.4-2.5,2.7-5.1,1.5-8c-3-7.5-14.3-10.6-20.7-5.7c-7-5-13.7-10.5-21.1-14.9c0.4-1.1,0.7-2.2,1.2-3.2c6.5-10.8,11.3-22.4,16.1-34.1
		C195.9,137.1,199.4,125,203,113z M364.3,236.1c0.5-5.1,0-8.9-2.2-12.5c-6.2-10.2-15.3-17.7-23.9-25.6c-2.7-2.5-5.1-6.3-9.9-6.1
		C341.7,204.9,355.7,217.3,364.3,236.1z"/>
	<path class="st2" d="M388.9,218.9c-5.2-18.4-19.2-30.4-31.2-44c-7.4-8.3-15.4-16-24.2-22.8c-7-5.3-13.9-11.2-21.9-14.4
		c-9.3-3.7-19.3-7.2-29.9-2.9c-7.7,3.1-16,2.4-24.1,2c-4.7-0.3-8.3-3.1-10.9-7.1c-2.7-4.2-0.5-9.1,4.7-10.3
		c12.3-2.9,23.3-9.4,35.5-12.4c18.1-6.3,33.9,0.4,48.9,9.4c10,5.9,20.3,11.3,30.9,16c6.4,2.9,14,1.6,21,0.2c0.6-0.1,1.3-0.1,2-0.2
		c1.1,2,2.1,4.1,3.3,6.1c11.3,18.9,21,38.5,27.1,59.8c0.5,1.9,1.7,3.7-0.3,5.4C409.1,207.9,399.1,213.7,388.9,218.9z"/>
	<path class="st3" d="M419.9,203.7c2.1-1.7,0.9-3.6,0.3-5.4c-6.1-21.3-15.8-40.9-27.1-59.8c-1.2-2-2.2-4.1-3.3-6.1
		c0.4-3.2,3.3-3.4,5.4-4.3c6.6-2.8,13.2-5.5,19.8-8.2c2.6-0.2,3.2,2.1,4.4,3.5c7.3,9.1,12.9,19.3,18.6,29.6c6.3,11.3,9.6,23.6,13,36
		c0.6,2.1-0.6,3-2.2,3.7c-2.4,1-3.6,2.7-3,5.4c-7.8-1.9-13.6,2.8-20,5.8C424,204.6,421.8,206.3,419.9,203.7z"/>
	<path class="st3" d="M203,113c-3.6,12-7.1,24.1-11.8,35.8c-4.7,11.7-9.6,23.3-16.1,34.1c-0.6,1-0.8,2.1-1.2,3.2
		c-3.3,2.7-6.7,1.6-10,0.3c-4.7-1.9-9.3-4-14.1-5.8c-1.3-0.5-2.9-0.3-4.3-0.5c0-3.6,3.3-5.3,4.7-8.2c6.9-14.2,13.3-28.7,18.2-43.7
		c1.2-3.6,0.8-8.2,2.3-11.3c1.5-3.1,3.2-6,3.7-9.6c0.3-2.4,0.8-4.9,1.1-7.3C185.4,102.8,195.2,105.7,203,113z"/>
	<path class="st2" d="M216.2,219c1.9-4.3,2.8-9,6-12.9s6.8-3.6,10.7-2.6c4.3,1.1,6.6,4.3,7.1,8.7c0.2,1.6,0,3.3,0,5
		c0.6-0.1,1.2-0.1,1.2-0.2c1.7-4.3,4.4-7,9.4-5.9c5.1,1.1,9.7,5.9,10.4,11c0,0.3,0.1,0.7,0,1c-0.6,5.4-0.7,10,7,10
		c4.4,0,6.4,3.9,7.7,7.6c1.3,3.7,3.1,7.7,3,11.5c-0.2,5.7,2.8,8.1,7.3,9.8c1,0.4,1.8,0.8,1.9,1.9c-7.9,1.3-15.8,2.7-23.5-0.8
		c-3.1-1.4-6.1-2.9-7.3-6.3c-0.6-1.7-1.7-1.5-3-1.8c-7.6-1.5-14-4.8-16.8-12.8c-0.6-1.9-1.2-2.7-4.1-1.6c-5.7,2.3-10.9-0.3-15.3-4.4
		c-3.5-3.3-4.5-7.2-3.1-11.7C215.4,222.6,215.7,220.8,216.2,219z"/>
	<path class="st2" d="M195,201c6.4-4.9,17.6-1.9,20.7,5.7c1.2,2.9-0.2,5.5-1.5,8c-2,1.1-3.9,2.6-6,3.3c-4.2,1.4-8.3,0.6-11.4-2.7
		C192.8,211.1,192.9,206.1,195,201z"/>
	<path class="st2" d="M339.2,248.1c-1-0.2-1.8-0.6-2.3-1.6c-4.9-10.5-13.5-17.8-21.8-25.4c-1.4-1.3-2.7-2.3-2.7-4.8
		c3,0.6,4.4,3,6.2,4.6c7.9,6.8,15.8,13.7,20.8,23.1c0.7,1.3,1.1,2.8,1.6,4.1C340.4,248.1,339.8,248.1,339.2,248.1z"/>
	<path class="st2" d="M316.2,257.2c-1.5-0.1-3-0.2-3.9-1.7c-4-6.4-9.6-11.3-14.8-16.6c-0.6-0.7-1.7-1.4-0.7-2.4
		c0.7-0.7,1.6-0.3,2.2,0.3c6.9,5.4,12.7,11.8,18.7,18.2c0.4,0.4,0.1,1.3,0.2,1.9C317.3,256.9,316.8,257,316.2,257.2z"/>
	<path class="st2" d="M364.3,236.1c-8.5-18.8-22.6-31.2-36-44.2c4.8-0.2,7.2,3.6,9.9,6.1c8.6,7.9,17.8,15.4,23.9,25.6
		C364.3,227.2,364.8,231,364.3,236.1z"/>
</g>
</svg>
